<svg xmlns="http://www.w3.org/2000/svg" width="760" height="470" viewBox="0 0 760 470" font-family="ui-sans-serif,system-ui" font-size="13">
<rect width="760" height="470" fill="white"/>
<text x="70" y="24" font-size="16" font-weight="600">Execution accuracy (A_mean) on val across system states</text>
<line x1="70" y1="352.0" x2="730" y2="352.0" stroke="#e5e7eb" stroke-width="1"/>
<text x="62" y="356.0" text-anchor="end" fill="#6b7280">35%</text>
<line x1="70" y1="307.4" x2="730" y2="307.4" stroke="#e5e7eb" stroke-width="1"/>
<text x="62" y="311.4" text-anchor="end" fill="#6b7280">40%</text>
<line x1="70" y1="262.9" x2="730" y2="262.9" stroke="#e5e7eb" stroke-width="1"/>
<text x="62" y="266.9" text-anchor="end" fill="#6b7280">45%</text>
<line x1="70" y1="218.3" x2="730" y2="218.3" stroke="#e5e7eb" stroke-width="1"/>
<text x="62" y="222.3" text-anchor="end" fill="#6b7280">50%</text>
<line x1="70" y1="173.7" x2="730" y2="173.7" stroke="#e5e7eb" stroke-width="1"/>
<text x="62" y="177.7" text-anchor="end" fill="#6b7280">55%</text>
<line x1="70" y1="129.1" x2="730" y2="129.1" stroke="#e5e7eb" stroke-width="1"/>
<text x="62" y="133.1" text-anchor="end" fill="#6b7280">60%</text>
<line x1="70" y1="84.6" x2="730" y2="84.6" stroke="#e5e7eb" stroke-width="1"/>
<text x="62" y="88.6" text-anchor="end" fill="#6b7280">65%</text>
<line x1="70" y1="40.0" x2="730" y2="40.0" stroke="#e5e7eb" stroke-width="1"/>
<text x="62" y="44.0" text-anchor="end" fill="#6b7280">70%</text>
<path d="M180.0,229.4 L400.0,184.9 L620.0,170.0" fill="none" stroke="#2563eb" stroke-width="2.5"/>
<line x1="180.0" y1="329.7" x2="180.0" y2="129.1" stroke="#93c5fd" stroke-width="4" stroke-linecap="round" opacity="0.8"/>
<circle cx="180.0" cy="229.4" r="6" fill="#2563eb" stroke="#2563eb" stroke-width="2.5"/>
<text x="180.0" y="215.4" text-anchor="middle" font-weight="600">48.8</text>
<text x="180.0" y="376" text-anchor="middle" fill="#374151">baseline</text>
<text x="180.0" y="392" text-anchor="middle" fill="#374151">(no memory)</text>
<line x1="400.0" y1="281.4" x2="400.0" y2="88.3" stroke="#93c5fd" stroke-width="4" stroke-linecap="round" opacity="0.8"/>
<circle cx="400.0" cy="184.9" r="6" fill="#2563eb" stroke="#2563eb" stroke-width="2.5"/>
<text x="400.0" y="170.9" text-anchor="middle" font-weight="600">53.8</text>
<text x="400.0" y="376" text-anchor="middle" fill="#374151">+ seeded memory</text>
<text x="400.0" y="392" text-anchor="middle" fill="#374151">(human)</text>
<line x1="620.0" y1="266.6" x2="620.0" y2="73.4" stroke="#93c5fd" stroke-width="4" stroke-linecap="round" opacity="0.8"/>
<circle cx="620.0" cy="170.0" r="6" fill="#2563eb" stroke="#2563eb" stroke-width="2.5"/>
<text x="620.0" y="156.0" text-anchor="middle" font-weight="600">55.4</text>
<text x="620.0" y="376" text-anchor="middle" fill="#374151">+ optimizer iter 2</text>
<text x="620.0" y="392" text-anchor="middle" fill="#374151">(claude, accepted)</text>
<text x="70" y="444" fill="#9ca3af" font-size="11">Whiskers: bootstrap 95% CI over instances. Same protocol throughout: val split, N=4 repeats.</text>
<text x="70" y="460" fill="#9ca3af" font-size="11">Rejected optimizer candidates not shown; see iterations/ for their metrics and decisions.</text>
</svg>