<svg xmlns="http://www.w3.org/2000/svg" width="760" height="420" viewBox="0 0 760 420" font-family="ui-sans-serif,system-ui" font-size="13">
<rect width="760" height="420" fill="white"/>
<text x="70" y="24" font-size="16" font-weight="600">Execution accuracy (A_mean) on val across system states</text>
<line x1="70" y1="330.0" x2="730" y2="330.0" stroke="#e5e7eb" stroke-width="1"/>
<text x="62" y="334.0" text-anchor="end" fill="#6b7280">40%</text>
<line x1="70" y1="272.0" x2="730" y2="272.0" stroke="#e5e7eb" stroke-width="1"/>
<text x="62" y="276.0" text-anchor="end" fill="#6b7280">45%</text>
<line x1="70" y1="214.0" x2="730" y2="214.0" stroke="#e5e7eb" stroke-width="1"/>
<text x="62" y="218.0" text-anchor="end" fill="#6b7280">50%</text>
<line x1="70" y1="156.0" x2="730" y2="156.0" stroke="#e5e7eb" stroke-width="1"/>
<text x="62" y="160.0" text-anchor="end" fill="#6b7280">55%</text>
<line x1="70" y1="98.0" x2="730" y2="98.0" stroke="#e5e7eb" stroke-width="1"/>
<text x="62" y="102.0" text-anchor="end" fill="#6b7280">60%</text>
<line x1="70" y1="40.0" x2="730" y2="40.0" stroke="#e5e7eb" stroke-width="1"/>
<text x="62" y="44.0" text-anchor="end" fill="#6b7280">65%</text>
<path d="M180.0,228.5 L400.0,170.5 L620.0,151.2" fill="none" stroke="#2563eb" stroke-width="2.5"/>
<line x1="180.0" y1="359.0" x2="180.0" y2="98.0" stroke="#93c5fd" stroke-width="4" stroke-linecap="round" opacity="0.8"/>
<circle cx="180.0" cy="228.5" r="6" fill="#2563eb" stroke="#2563eb" stroke-width="2.5"/>
<text x="180.0" y="214.5" text-anchor="middle" font-weight="600">48.8</text>
<text x="180.0" y="354" text-anchor="middle" fill="#374151">baseline</text>
<text x="180.0" y="370" text-anchor="middle" fill="#374151">(no memory)</text>
<line x1="400.0" y1="296.2" x2="400.0" y2="44.8" stroke="#93c5fd" stroke-width="4" stroke-linecap="round" opacity="0.8"/>
<circle cx="400.0" cy="170.5" r="6" fill="#2563eb" stroke="#2563eb" stroke-width="2.5"/>
<text x="400.0" y="156.5" text-anchor="middle" font-weight="600">53.8</text>
<text x="400.0" y="354" text-anchor="middle" fill="#374151">+ seeded memory</text>
<text x="400.0" y="370" text-anchor="middle" fill="#374151">(human)</text>
<line x1="620.0" y1="276.8" x2="620.0" y2="25.5" stroke="#93c5fd" stroke-width="4" stroke-linecap="round" opacity="0.8"/>
<circle cx="620.0" cy="151.2" r="6" fill="#2563eb" stroke="#2563eb" stroke-width="2.5"/>
<text x="620.0" y="137.2" text-anchor="middle" font-weight="600">55.4</text>
<text x="620.0" y="354" text-anchor="middle" fill="#374151">+ optimizer iter 2</text>
<text x="620.0" y="370" text-anchor="middle" fill="#374151">(claude, accepted)</text>
<text x="70" y="408" fill="#9ca3af" font-size="11">Whiskers: bootstrap 95% CI over instances. Same protocol throughout: val split, N=4 repeats. Rejected optimizer candidates not shown; see iterations/.</text>
</svg>